<?xml version="1.0" encoding="utf-8"?>
<!-- Generated by IcoMoon.io -->
<!DOCTYPE svg PUBLIC "-//W3C//DTD SVG 1.1//EN" "http://www.w3.org/Graphics/SVG/1.1/DTD/svg11.dtd">
<svg version="1.1" xmlns="http://www.w3.org/2000/svg" xmlns:xlink="http://www.w3.org/1999/xlink" width="17" height="17" viewBox="0 0 17 17">
<g>
</g>
	<path d="M12 0h-7c-0.827 0-1.5 0.673-1.5 1.5v14c0 0.827 0.673 1.5 1.5 1.5h7c0.827 0 1.5-0.673 1.5-1.5v-14c0-0.827-0.673-1.5-1.5-1.5zM5 2h7c0.275 0 0.5 0.225 0.5 0.5v1h-8v-1c0-0.275 0.225-0.5 0.5-0.5zM12.5 4.5v9h-8v-9h8zM12 16h-7c-0.275 0-0.5-0.225-0.5-0.5v-1h8v1c0 0.275-0.225 0.5-0.5 0.5zM8.5 14.5c-0.414 0-0.75 0.336-0.75 0.75s0.336 0.75 0.75 0.75 0.75-0.336 0.75-0.75-0.336-0.75-0.75-0.75z" fill="#000000" />
</svg>
